G04*
G04 #@! TF.GenerationSoftware,Altium Limited,Altium Designer,24.9.1 (31)*
G04*
G04 Layer_Color=65535*
%FSLAX25Y25*%
%MOIN*%
G70*
G04*
G04 #@! TF.SameCoordinates,63D46F20-04D2-406D-A019-F368FE4B28ED*
G04*
G04*
G04 #@! TF.FilePolarity,Positive*
G04*
G01*
G75*
%ADD10C,0.00984*%
%ADD11C,0.00787*%
%ADD12C,0.00591*%
%ADD13C,0.00800*%
G36*
X387126Y323118D02*
Y321937D01*
X386734D01*
X386011Y322237D01*
X385457Y322791D01*
X385157Y323514D01*
Y323905D01*
D01*
Y324299D01*
X385945D01*
X387126Y323118D01*
D02*
G37*
D10*
X341492Y328000D02*
X340754Y328426D01*
Y327574D01*
X341492Y328000D01*
X388492Y326000D02*
X387754Y326426D01*
Y325574D01*
X388492Y326000D01*
D11*
X385157Y323905D02*
X385421Y322921D01*
X386142Y322201D01*
X387126Y321937D01*
X385551Y324299D02*
X387126Y322724D01*
X352874Y324299D02*
X385551D01*
X387126Y311701D02*
Y322724D01*
X352874Y311701D02*
X387126D01*
X352874Y321861D02*
Y324299D01*
Y311701D02*
Y320139D01*
D12*
X398657Y322476D02*
X399134Y322000D01*
X398657Y321524D02*
X399134Y322000D01*
Y313000D02*
X399610Y313476D01*
X399134Y313000D02*
X399610Y312524D01*
D13*
X404001Y282002D02*
Y283335D01*
Y282669D01*
X407999D01*
Y282002D01*
Y283335D01*
X404667Y288000D02*
X404001Y287334D01*
Y286001D01*
X404667Y285334D01*
X407333D01*
X407999Y286001D01*
Y287334D01*
X407333Y288000D01*
X404667Y291999D02*
X404001Y291333D01*
Y290000D01*
X404667Y289333D01*
X405334D01*
X406000Y290000D01*
Y291333D01*
X406666Y291999D01*
X407333D01*
X407999Y291333D01*
Y290000D01*
X407333Y289333D01*
X407999Y293332D02*
X404001D01*
Y295331D01*
X404667Y295998D01*
X406000D01*
X406666Y295331D01*
Y293332D01*
X358800Y302799D02*
X361466D01*
X360133D01*
Y298800D01*
X362799Y302799D02*
X364132D01*
X363465D01*
Y298800D01*
X362799D01*
X364132D01*
X366131D02*
Y302799D01*
X368797Y298800D01*
Y302799D01*
X370130D02*
Y302132D01*
X371463Y300799D01*
X372796Y302132D01*
Y302799D01*
X371463Y300799D02*
Y298800D01*
X374128Y302799D02*
X376794Y298800D01*
Y302799D02*
X374128Y298800D01*
X380127D02*
Y302799D01*
X378127Y300799D01*
X380793D01*
X385800Y290800D02*
Y293466D01*
X387133Y294799D01*
X388466Y293466D01*
Y290800D01*
Y292799D01*
X385800D01*
X389799Y294132D02*
X390465Y294799D01*
X391798D01*
X392464Y294132D01*
Y291466D01*
X391798Y290800D01*
X390465D01*
X389799Y291466D01*
Y294132D01*
X376800Y290800D02*
Y293466D01*
X378133Y294799D01*
X379466Y293466D01*
Y290800D01*
Y292799D01*
X376800D01*
X380799Y290800D02*
X382132D01*
X381465D01*
Y294799D01*
X380799Y294132D01*
X365800Y290800D02*
Y293466D01*
X367133Y294799D01*
X368466Y293466D01*
Y290800D01*
Y292799D01*
X365800D01*
X372464Y290800D02*
X369799D01*
X372464Y293466D01*
Y294132D01*
X371798Y294799D01*
X370465D01*
X369799Y294132D01*
X355800Y290800D02*
Y293466D01*
X357133Y294799D01*
X358466Y293466D01*
Y290800D01*
Y292799D01*
X355800D01*
X359799Y294132D02*
X360465Y294799D01*
X361798D01*
X362464Y294132D01*
Y293466D01*
X361798Y292799D01*
X361132D01*
X361798D01*
X362464Y292133D01*
Y291466D01*
X361798Y290800D01*
X360465D01*
X359799Y291466D01*
X345800Y290800D02*
Y293466D01*
X347133Y294799D01*
X348466Y293466D01*
Y290800D01*
Y292799D01*
X345800D01*
X351798Y290800D02*
Y294799D01*
X349799Y292799D01*
X352465D01*
X335800Y290800D02*
Y293466D01*
X337133Y294799D01*
X338466Y293466D01*
Y290800D01*
Y292799D01*
X335800D01*
X342464Y294799D02*
X339799D01*
Y292799D01*
X341132Y293466D01*
X341798D01*
X342464Y292799D01*
Y291466D01*
X341798Y290800D01*
X340465D01*
X339799Y291466D01*
X325800Y290800D02*
Y293466D01*
X327133Y294799D01*
X328466Y293466D01*
Y290800D01*
Y292799D01*
X325800D01*
X332465Y294799D02*
X331132Y294132D01*
X329799Y292799D01*
Y291466D01*
X330465Y290800D01*
X331798D01*
X332465Y291466D01*
Y292133D01*
X331798Y292799D01*
X329799D01*
X385800Y343799D02*
Y339800D01*
X387799D01*
X388466Y340466D01*
Y341133D01*
X387799Y341799D01*
X385800D01*
X387799D01*
X388466Y342466D01*
Y343132D01*
X387799Y343799D01*
X385800D01*
X389799Y343132D02*
X390465Y343799D01*
X391798D01*
X392464Y343132D01*
Y340466D01*
X391798Y339800D01*
X390465D01*
X389799Y340466D01*
Y343132D01*
X376800Y343799D02*
Y339800D01*
X378799D01*
X379466Y340466D01*
Y341133D01*
X378799Y341799D01*
X376800D01*
X378799D01*
X379466Y342466D01*
Y343132D01*
X378799Y343799D01*
X376800D01*
X380799Y339800D02*
X382132D01*
X381465D01*
Y343799D01*
X380799Y343132D01*
X365800Y339800D02*
Y343799D01*
X367799D01*
X368466Y343132D01*
Y341799D01*
X367799Y341133D01*
X365800D01*
X367133D02*
X368466Y339800D01*
X372464Y343132D02*
X371798Y343799D01*
X370465D01*
X369799Y343132D01*
Y342466D01*
X370465Y341799D01*
X371798D01*
X372464Y341133D01*
Y340466D01*
X371798Y339800D01*
X370465D01*
X369799Y340466D01*
X355800Y343799D02*
Y339800D01*
X357799D01*
X358466Y340466D01*
Y341133D01*
X357799Y341799D01*
X355800D01*
X357799D01*
X358466Y342466D01*
Y343132D01*
X357799Y343799D01*
X355800D01*
X362464Y339800D02*
X359799D01*
X362464Y342466D01*
Y343132D01*
X361798Y343799D01*
X360465D01*
X359799Y343132D01*
X345800Y339800D02*
Y342466D01*
X347133Y343799D01*
X348466Y342466D01*
Y339800D01*
Y341799D01*
X345800D01*
X349799Y343799D02*
X352465D01*
Y343132D01*
X349799Y340466D01*
Y339800D01*
X338466Y343799D02*
X335800D01*
Y341799D01*
X337133Y342466D01*
X337799D01*
X338466Y341799D01*
Y340466D01*
X337799Y339800D01*
X336466D01*
X335800Y340466D01*
X339799Y343799D02*
Y341133D01*
X341132Y339800D01*
X342464Y341133D01*
Y343799D01*
X324466Y343132D02*
X323799Y343799D01*
X322466D01*
X321800Y343132D01*
Y340466D01*
X322466Y339800D01*
X323799D01*
X324466Y340466D01*
Y341799D01*
X323133D01*
X325799Y339800D02*
Y343799D01*
X328465Y339800D01*
Y343799D01*
X329797D02*
Y339800D01*
X331797D01*
X332463Y340466D01*
Y343132D01*
X331797Y343799D01*
X329797D01*
M02*
