G04*
G04 #@! TF.GenerationSoftware,Altium Limited,Altium Designer,24.9.1 (31)*
G04*
G04 Layer_Physical_Order=1*
G04 Layer_Color=255*
%FSLAX25Y25*%
%MOIN*%
G70*
G04*
G04 #@! TF.SameCoordinates,63D46F20-04D2-406D-A019-F368FE4B28ED*
G04*
G04*
G04 #@! TF.FilePolarity,Positive*
G04*
G01*
G75*
%ADD27R,0.04724X0.04724*%
%ADD28R,0.05512X0.06299*%
%ADD29R,0.02953X0.02362*%
%ADD30R,0.02362X0.02520*%
%ADD31R,0.04842X0.07087*%
%ADD32R,0.07087X0.07480*%
G04:AMPARAMS|DCode=33|XSize=62.99mil|YSize=55.12mil|CornerRadius=13.78mil|HoleSize=0mil|Usage=FLASHONLY|Rotation=270.000|XOffset=0mil|YOffset=0mil|HoleType=Round|Shape=RoundedRectangle|*
%AMROUNDEDRECTD33*
21,1,0.06299,0.02756,0,0,270.0*
21,1,0.03543,0.05512,0,0,270.0*
1,1,0.02756,-0.01378,-0.01772*
1,1,0.02756,-0.01378,0.01772*
1,1,0.02756,0.01378,0.01772*
1,1,0.02756,0.01378,-0.01772*
%
%ADD33ROUNDEDRECTD33*%
%ADD34O,0.05315X0.01675*%
%ADD35O,0.02362X0.05709*%
%ADD36C,0.01000*%
%ADD37C,0.06500*%
%ADD38C,0.07874*%
%ADD39O,0.06299X0.03543*%
%ADD40C,0.03000*%
D27*
X395000Y322000D02*
D03*
X403268D02*
D03*
X395000Y313000D02*
D03*
X403268D02*
D03*
D28*
X413283Y319000D02*
D03*
X431000Y350496D02*
D03*
Y319000D02*
D03*
X413283Y350496D02*
D03*
D29*
X393736Y305000D02*
D03*
X398264D02*
D03*
X397528Y330000D02*
D03*
X393000D02*
D03*
D30*
X385000Y336000D02*
D03*
X388465D02*
D03*
D31*
X344000Y322000D02*
D03*
Y311685D02*
D03*
D32*
X325000Y312500D02*
D03*
Y321949D02*
D03*
D33*
X334646Y304626D02*
D03*
Y329823D02*
D03*
D34*
X335531Y317224D02*
D03*
Y319783D02*
D03*
Y322342D02*
D03*
Y312106D02*
D03*
Y314665D02*
D03*
D35*
X355000Y307272D02*
D03*
X360000D02*
D03*
X365000D02*
D03*
X370000D02*
D03*
X375000D02*
D03*
X380000D02*
D03*
X385000D02*
D03*
X355000Y328728D02*
D03*
X360000D02*
D03*
X365000D02*
D03*
X370000D02*
D03*
X375000D02*
D03*
X380000D02*
D03*
X385000D02*
D03*
D36*
X369000Y350000D02*
X370000Y349000D01*
Y328728D02*
Y349000D01*
X335531Y322342D02*
X343657D01*
X344000Y322000D02*
Y340000D01*
X339000Y345000D02*
X344000Y340000D01*
X339000Y345000D02*
Y350000D01*
X355000Y321000D02*
Y328728D01*
X350000Y304000D02*
Y316000D01*
X355000Y321000D01*
X410311Y300000D02*
X413311Y297000D01*
X394000Y300000D02*
X410311D01*
X380000Y294000D02*
Y307272D01*
Y294000D02*
X389000Y285000D01*
X375000Y289000D02*
Y307272D01*
X408250Y280250D02*
X415000Y287000D01*
X343750Y280250D02*
X408250D01*
X339000Y285000D02*
X343750Y280250D01*
X413311Y297000D02*
X415000D01*
X360000Y307272D02*
Y315000D01*
X393868Y300132D02*
X394000Y300000D01*
X393736Y305000D02*
X393868Y304868D01*
Y300132D02*
Y304868D01*
X431000Y318606D02*
Y319000D01*
X425000Y307000D02*
Y312606D01*
X431000Y318606D01*
Y319000D02*
Y350496D01*
X413283Y319000D02*
Y350496D01*
X407000Y350000D02*
X412787D01*
X413283Y350496D01*
X398264Y305000D02*
Y307996D01*
X403268Y313000D01*
X395000D02*
X401405Y319406D01*
Y320138D01*
X403268Y322000D01*
X385000Y308945D02*
X389055Y313000D01*
X385000Y307272D02*
Y308945D01*
X389055Y313000D02*
X395000D01*
X375000Y289000D02*
X379000Y285000D01*
X369000D02*
X369739Y285739D01*
Y307011D02*
X370000Y307272D01*
X369739Y285739D02*
Y307011D01*
X359000Y285000D02*
X365000Y291000D01*
Y307272D01*
X349000Y285000D02*
X360000Y296000D01*
Y307272D01*
X355000Y301000D02*
Y307272D01*
X339000Y285000D02*
X355000Y301000D01*
X341026Y295026D02*
X350000Y304000D01*
X329000Y285000D02*
X339026Y295026D01*
X341026D01*
X380000Y328728D02*
Y341000D01*
X389000Y350000D01*
X375000Y346000D02*
X379000Y350000D01*
X375000Y328728D02*
Y346000D01*
X365000Y328728D02*
Y344000D01*
X359000Y350000D02*
X365000Y344000D01*
X349000Y341402D02*
X360000Y330402D01*
X349000Y341402D02*
Y350000D01*
X360000Y328728D02*
Y330402D01*
X395000Y336000D02*
X400000D01*
X403268Y332732D01*
Y322000D02*
Y332732D01*
X396551Y329319D02*
X397232Y330000D01*
X395000Y325862D02*
X396551Y327413D01*
X395000Y322000D02*
Y325862D01*
X397232Y330000D02*
X397528D01*
X396551Y327413D02*
Y329319D01*
X385000Y328728D02*
X391433D01*
X392705Y330000D01*
X393000D01*
X385000Y328728D02*
Y336000D01*
Y338000D01*
X389000Y342000D02*
X401000D01*
X385000Y338000D02*
X389000Y342000D01*
X388465Y336000D02*
X395000D01*
X343657Y322342D02*
X344000Y322000D01*
X335531Y312106D02*
X343579D01*
X344000Y311685D01*
Y304000D02*
Y311685D01*
X325394Y312106D02*
X335531D01*
X325000Y312500D02*
X325394Y312106D01*
D37*
X329000Y350000D02*
D03*
X349000D02*
D03*
X359000D02*
D03*
X369000D02*
D03*
X379000D02*
D03*
X389000D02*
D03*
X339000D02*
D03*
X329000Y285000D02*
D03*
X349000D02*
D03*
X359000D02*
D03*
X369000D02*
D03*
X379000D02*
D03*
X389000D02*
D03*
X339000D02*
D03*
D38*
X415000Y287000D02*
D03*
Y297000D02*
D03*
Y307000D02*
D03*
X425000D02*
D03*
Y297000D02*
D03*
Y287000D02*
D03*
D39*
X325000Y304232D02*
D03*
Y330217D02*
D03*
D40*
X355000Y321000D02*
D03*
X360000Y315000D02*
D03*
X394000Y300000D02*
D03*
X407000Y350000D02*
D03*
X401000Y342000D02*
D03*
X395000Y336000D02*
D03*
X344000Y304000D02*
D03*
M02*
