M48
;Layer_Color=9474304
;FILE_FORMAT=2:4
INCH,LZ
;TYPE=PLATED
T01F00S00C0.0150
T03F00S00C0.0430
T04F00S00C0.0433
%
T01
X0344Y0304
X0394Y03
X0395Y0336
X0401Y0342
X0407Y035
X0355Y0321
X036Y0315
T03
X0329Y0285
X0339
X0349
X0359
X0369
X0379
X0389
Y035
X0379
X0369
X0359
X0349
X0339
X0329
T04
X0415Y0287
Y0297
Y0307
X0425
Y0297
Y0287
M30
